<svg viewBox="0 0 64 64" xmlns="http://www.w3.org/2000/svg">
  <rect width="64" height="64" fill="#0D0D0D"/>
  <g fill="#FFFFFF">
    <path d="M18 30.0318V29.2034H19.3655L23.8225 12H24.8531L29.3101 29.2034H30.959V30.0318H24.8788V29.2034H27.4809L25.9866 23.4283H21.7357L20.2672 29.2034H22.0706V30.0318H18ZM23.8483 15.119L21.9418 22.6485H25.7805L23.8483 15.119Z"/>
    <path d="M41.7281 30.2755L35.1584 15.7526V29.2034H37.3225V30.0318H32.6336V29.2034H34.2824V12.8285H32.6336V12H35.2614L41.4704 25.7432V12.8285H39.3063V12H43.9952V12.8285H42.3464V30.2755H41.7281Z"/>
    <path d="M28.4599 52L21.8903 37.4771V50.9278H24.0544V51.7563H19.3655V50.9278H21.0143V34.553H19.3655V33.7245H21.9933L28.2023 47.4677V34.553H26.0382V33.7245H30.7271V34.553H29.0782V52H28.4599Z"/>
    <path d="M32.041 51.7563V50.9278H33.4065L37.8636 33.7245H38.8941L43.3511 50.9278H45V51.7563H38.9198V50.9278H41.5219L40.0277 45.1528H35.7767L34.3082 50.9278H36.1116V51.7563H32.041ZM37.8893 36.8435L35.9828 44.373H39.8216L37.8893 36.8435Z"/>
  </g>
</svg>
