<svg viewBox="0 0 274 26" xmlns="http://www.w3.org/2000/svg" fill="#0D0D0D">
      <path d="M0 25.6579V24.4947H1.9619L8.36585 0.342107H9.84653L16.2505 24.4947H18.6196V25.6579H9.88355V24.4947H13.6223L11.4753 16.3868H5.36747L3.2575 24.4947H5.84869V25.6579H0ZM8.40286 4.72105L5.66361 15.2921H11.1791L8.40286 4.72105Z"/>
      <path d="M34.0927 26L24.6533 5.61053V24.4947H27.7628V25.6579H21.0257V24.4947H23.3948V1.50526H21.0257V0.342107H24.8014L33.7225 19.6368V1.50526H30.6131V0.342107H37.3502V1.50526H34.9811V26H34.0927Z"/>
      <path d="M53.7117 26L44.2724 5.61053V24.4947H47.3818V25.6579H40.6447V24.4947H43.0138V1.50526H40.6447V0.342107H44.4204L53.3415 19.6368V1.50526H50.2321V0.342107H56.9692V1.50526H54.6001V26H53.7117Z"/>
      <path d="M58.8571 25.6579V24.4947H60.819L67.2229 0.342107H68.7036L75.1076 24.4947H77.4766V25.6579H68.7406V24.4947H72.4793L70.3324 16.3868H64.2245L62.1146 24.4947H64.7058V25.6579H58.8571ZM67.2599 4.72105L64.5207 15.2921H70.0362L67.2599 4.72105Z"/>
      <path d="M99.2797 25.6579V24.4947H102.389V1.50526H99.2797V0.342107H114.864V7.66316H113.827L113.309 4.00263C113.087 2.36053 112.063 1.53947 110.237 1.53947H104.98V11.2553H110.2V6.91053H111.31V16.7632H110.2V12.4184H104.98V24.4947H110.977V25.6579H99.2797Z"/>
      <path d="M118.899 25.6579V24.4947H122.008V1.50526H118.899V0.342107H134.113V7.66316H133.076L132.558 4.00263C132.336 2.36053 131.312 1.53947 129.486 1.53947H124.599V11.2553H129.375V6.91053H130.559V16.7632H129.375V12.4184H124.599V24.4605H129.856C131.657 24.4605 132.669 23.6281 132.891 21.9632L133.446 17.6526H134.483V25.6579H118.899Z"/>
      <path d="M138.777 25.6579V24.4947H141.886V1.50526H138.777V0.342107H145.773C147.328 0.342107 148.673 0.707019 149.808 1.43684C150.943 2.14386 151.881 3.10175 152.621 4.31053C153.362 5.5193 153.917 6.87632 154.287 8.38158C154.657 9.88684 154.842 11.4263 154.842 13C154.842 14.5737 154.657 16.1132 154.287 17.6184C153.917 19.1237 153.362 20.4807 152.621 21.6895C151.881 22.8982 150.943 23.8675 149.808 24.5974C148.673 25.3044 147.328 25.6579 145.773 25.6579H138.777ZM145.773 1.43684H144.477V24.5632H145.773C146.859 24.5632 147.846 24.3237 148.734 23.8447C149.647 23.3658 150.375 22.6702 150.918 21.7579C151.461 20.8228 151.733 19.6939 151.733 18.3711V7.62895C151.733 6.28333 151.461 5.15439 150.918 4.24211C150.375 3.32983 149.647 2.63421 148.734 2.15526C147.846 1.67632 146.859 1.43684 145.773 1.43684Z"/>
      <path d="M166.243 26C164.985 26 163.874 25.6351 162.912 24.9053C161.974 24.1754 161.184 23.1947 160.543 21.9632C159.926 20.7088 159.457 19.3061 159.136 17.7553C158.815 16.2044 158.655 14.6193 158.655 13C158.655 11.3807 158.815 9.79561 159.136 8.24474C159.457 6.69386 159.926 5.30263 160.543 4.07105C161.184 2.81667 161.974 1.82456 162.912 1.09474C163.874 0.364912 164.985 0 166.243 0C167.502 0 168.6 0.364912 169.538 1.09474C170.5 1.82456 171.29 2.81667 171.907 4.07105C172.549 5.30263 173.03 6.69386 173.351 8.24474C173.672 9.79561 173.832 11.3807 173.832 13C173.832 14.6193 173.672 16.2044 173.351 17.7553C173.03 19.3061 172.549 20.7088 171.907 21.9632C171.29 23.1947 170.5 24.1754 169.538 24.9053C168.6 25.6351 167.502 26 166.243 26ZM166.243 24.7342C167.699 24.7342 168.81 24.2096 169.575 23.1605C170.34 22.1114 170.723 20.6061 170.723 18.6447V7.35526C170.723 5.39386 170.34 3.8886 169.575 2.83947C168.81 1.79035 167.699 1.26579 166.243 1.26579C164.812 1.26579 163.702 1.79035 162.912 2.83947C162.147 3.8886 161.764 5.39386 161.764 7.35526V18.6447C161.764 20.6061 162.147 22.1114 162.912 23.1605C163.677 24.2096 164.787 24.7342 166.243 24.7342Z"/>
      <path d="M191.748 26C190.712 26 189.91 25.6807 189.342 25.0421C188.799 24.3807 188.528 23.5254 188.528 22.4763V16.1816C188.528 14.9272 188.269 14.0605 187.75 13.5816C187.257 13.0798 186.257 12.8289 184.752 12.8289H182.975V24.4947H186.048V25.6579H177.275V24.4947H180.384V1.50526H177.275V0.342107H185.788C187.639 0.342107 189.108 0.661405 190.193 1.3C191.304 1.9386 192.094 2.73684 192.563 3.69474C193.056 4.65263 193.303 5.59912 193.303 6.53421C193.303 8.06228 192.797 9.31667 191.785 10.2974C190.773 11.2781 189.428 11.9281 187.75 12.2474L187.565 12.2816V12.4868L187.75 12.5211C188.836 12.7263 189.663 13.0912 190.23 13.6158C190.798 14.1403 191.082 14.9956 191.082 16.1816V22.2026C191.082 22.4307 191.094 22.7272 191.119 23.0921C191.168 23.4342 191.292 23.7421 191.489 24.0158C191.686 24.2667 192.007 24.3921 192.452 24.3921C193.019 24.3921 193.389 24.1868 193.562 23.7763C193.735 23.343 193.821 22.8868 193.821 22.4079V16.4895H194.932V22.5105C194.932 23.0123 194.833 23.5368 194.636 24.0842C194.463 24.6316 194.142 25.0877 193.673 25.4526C193.229 25.8175 192.587 26 191.748 26ZM182.975 11.7342H185.159C186.813 11.7342 188.071 11.4491 188.935 10.8789C189.823 10.286 190.268 9.22544 190.268 7.69737V5.81579C190.268 4.28772 189.823 3.18158 188.935 2.49737C188.071 1.79035 186.813 1.43684 185.159 1.43684H182.975V11.7342Z"/>
      <path d="M205.63 26C204.371 26 203.26 25.6351 202.298 24.9053C201.36 24.1754 200.571 23.1947 199.929 21.9632C199.312 20.7088 198.843 19.3061 198.522 17.7553C198.201 16.2044 198.041 14.6193 198.041 13C198.041 11.3807 198.201 9.79561 198.522 8.24474C198.843 6.69386 199.312 5.30263 199.929 4.07105C200.571 2.81667 201.36 1.82456 202.298 1.09474C203.26 0.364912 204.371 0 205.63 0C206.617 0 207.443 0.19386 208.11 0.58158C208.801 0.946493 209.344 1.39123 209.738 1.91579C210.133 2.44035 210.392 2.95351 210.516 3.45526H210.812V0.342107H211.997V8.96316H210.072V8.17632C210.072 6.42018 209.85 5.04035 209.405 4.03684C208.986 3.03333 208.431 2.32632 207.74 1.91579C207.073 1.48246 206.37 1.26579 205.63 1.26579C204.198 1.26579 203.088 1.79035 202.298 2.83947C201.533 3.8886 201.151 5.39386 201.151 7.35526V18.6447C201.151 20.6061 201.533 22.1114 202.298 23.1605C203.063 24.2096 204.174 24.7342 205.63 24.7342C206.37 24.7342 207.073 24.5289 207.74 24.1184C208.431 23.6851 208.986 22.9667 209.405 21.9632C209.85 20.9596 210.072 19.5798 210.072 17.8237V17.0368H211.997V25.6579H210.812V22.5447H210.516C210.392 23.0237 210.133 23.5368 209.738 24.0842C209.344 24.6088 208.801 25.0649 208.11 25.4526C207.443 25.8175 206.617 26 205.63 26Z"/>
      <path d="M216.253 25.6579V24.4947H218.697V1.50526H216.253V0.342107H223.583V1.50526H221.14V11.4263H229.024V1.50526H226.581V0.342107H233.911V1.50526H231.467V24.4947H233.911V25.6579H226.581V24.4947H229.024V12.5211H221.14V24.4947H223.583V25.6579H216.253Z"/>
      <path d="M244.794 26C242.844 26 241.351 25.4868 240.315 24.4605C239.278 23.4342 238.76 21.9518 238.76 20.0132V1.50526H236.391V0.342107H244.09V1.50526H241.351V20.0474C241.351 21.507 241.696 22.636 242.387 23.4342C243.103 24.2096 244.127 24.5974 245.46 24.5974C246.793 24.5974 247.804 24.2096 248.495 23.4342C249.211 22.636 249.569 21.507 249.569 20.0474V1.50526H247.385V0.342107H253.011V1.50526H250.827V20.0132C250.827 21.9518 250.309 23.4342 249.273 24.4605C248.261 25.4868 246.768 26 244.794 26Z"/>
      <path d="M255.121 25.6579V24.4947H257.564V1.50526H255.121V0.342107H262.525V1.50526H260.082V13.3421L268.41 1.50526H266.189V0.342107H273.038V1.50526H269.928L263.931 10.0237L271.372 24.4947H274V25.6579H265.708V24.4947H268.633L262.34 12.2816L260.082 15.4974V24.4947H263.635V25.6579H255.121Z"/>
    </svg>
